# Blender 4.4.3
# www.blender.org
mtllib steve.mtl
o body.001
v 0.250000 1.500000 0.125000
v 0.250000 1.500000 -0.125000
v 0.250000 0.750000 0.125000
v 0.250000 0.750000 -0.125000
v -0.250000 1.500000 -0.125000
v -0.250000 1.500000 0.125000
v -0.250000 0.750000 -0.125000
v -0.250000 0.750000 0.125000
vn -0.0000 -0.0000 -1.0000
vn 1.0000 -0.0000 -0.0000
vn -0.0000 -0.0000 1.0000
vn -1.0000 -0.0000 -0.0000
vn -0.0000 1.0000 -0.0000
vn -0.0000 -1.0000 -0.0000
vt 0.437500 0.500000
vt 0.312500 0.687500
vt 0.312500 0.500000
vt 0.250000 0.687500
vt 0.250000 0.500000
vt 0.625000 0.500000
vt 0.500000 0.687500
vt 0.500000 0.500000
vt 0.437500 0.687500
vt 0.312500 0.750000
vt 0.437500 0.750000
vt 0.562500 0.750000
vt 0.562500 0.687500
vt 0.625000 0.687500
s 1
usemtl Material_0.002
f 7/1/1 2/2/1 4/3/1
f 4/3/2 1/4/2 3/5/2
f 3/6/3 6/7/3 8/8/3
f 8/8/4 5/9/4 7/1/4
f 1/10/5 5/9/5 6/11/5
f 4/9/6 8/12/6 7/13/6
f 7/1/1 5/9/1 2/2/1
f 4/3/2 2/2/2 1/4/2
f 3/6/3 1/14/3 6/7/3
f 8/8/4 6/7/4 5/9/4
f 1/10/5 2/2/5 5/9/5
f 4/9/6 3/11/6 8/12/6
o head.001
v 0.250000 2.000000 0.250000
v 0.250000 2.000000 -0.250000
v 0.250000 1.500000 0.250000
v 0.250000 1.500000 -0.250000
v -0.250000 2.000000 -0.250000
v -0.250000 2.000000 0.250000
v -0.250000 1.500000 -0.250000
v -0.250000 1.500000 0.250000
vn -0.0000 -0.0000 -1.0000
vn 1.0000 -0.0000 -0.0000
vn -0.0000 -0.0000 1.0000
vn -1.0000 -0.0000 -0.0000
vn -0.0000 1.0000 -0.0000
vn -0.0000 -1.0000 -0.0000
vt 0.250000 0.750000
vt 0.125000 0.875000
vt 0.125000 0.750000
vt 0.000000 0.875000
vt 0.000000 0.750000
vt 0.500000 0.750000
vt 0.375000 0.875000
vt 0.375000 0.750000
vt 0.250000 0.875000
vt 0.125000 1.000000
vt 0.250000 1.000000
vt 0.375000 1.000000
vt 0.500000 0.875000
s 1
usemtl Material_0.002
f 15/15/7 10/16/7 12/17/7
f 12/17/8 9/18/8 11/19/8
f 11/20/9 14/21/9 16/22/9
f 16/22/10 13/23/10 15/15/10
f 9/24/11 13/23/11 14/25/11
f 12/23/12 16/26/12 15/21/12
f 15/15/7 13/23/7 10/16/7
f 12/17/8 10/16/8 9/18/8
f 11/20/9 9/27/9 14/21/9
f 16/22/10 14/21/10 13/23/10
f 9/24/11 10/16/11 13/23/11
f 12/23/12 11/25/12 16/26/12
o leftArm.001
v -0.250000 1.500000 0.125001
v -0.250000 1.500000 -0.124999
v -0.250000 0.750000 0.125000
v -0.250000 0.750000 -0.125000
v -0.500000 1.500000 -0.124999
v -0.500000 1.500000 0.125001
v -0.500000 0.750000 -0.125000
v -0.500000 0.750000 0.125000
vn -0.0000 -0.0000 -1.0000
vn 1.0000 -0.0000 -0.0000
vn -0.0000 -0.0000 1.0000
vn -1.0000 -0.0000 -0.0000
vn -0.0000 1.0000 -0.0000
vn -0.0000 -1.0000 -0.0000
vt 0.625000 0.000000
vt 0.562500 0.187500
vt 0.562500 0.000000
vt 0.500000 0.187500
vt 0.500000 0.000000
vt 0.750000 0.000000
vt 0.687500 0.187500
vt 0.687500 0.000000
vt 0.625000 0.187500
vt 0.562500 0.250000
vt 0.625000 0.250000
vt 0.687500 0.250000
vt 0.750000 0.187500
s 1
usemtl Material_0.002
f 23/28/13 18/29/13 20/30/13
f 20/30/14 17/31/14 19/32/14
f 19/33/15 22/34/15 24/35/15
f 24/35/16 21/36/16 23/28/16
f 17/37/17 21/36/17 22/38/17
f 20/36/18 24/39/18 23/34/18
f 23/28/13 21/36/13 18/29/13
f 20/30/14 18/29/14 17/31/14
f 19/33/15 17/40/15 22/34/15
f 24/35/16 22/34/16 21/36/16
f 17/37/17 18/29/17 21/36/17
f 20/36/18 19/38/18 24/39/18
o leftLeg.001
v 0.006250 0.750000 0.125000
v 0.006250 0.750000 -0.125000
v 0.006250 0.000000 0.125000
v 0.006250 -0.000000 -0.125000
v -0.243750 0.750000 -0.125000
v -0.243750 0.750000 0.125000
v -0.243750 -0.000000 -0.125000
v -0.243750 0.000000 0.125000
vn -0.0000 -0.0000 -1.0000
vn 1.0000 -0.0000 -0.0000
vn -0.0000 -0.0000 1.0000
vn -1.0000 -0.0000 -0.0000
vn -0.0000 1.0000 -0.0000
vn -0.0000 -1.0000 -0.0000
vt 0.375000 0.000000
vt 0.312500 0.187500
vt 0.312500 0.000000
vt 0.250000 0.187500
vt 0.250000 0.000000
vt 0.500000 0.000000
vt 0.437500 0.187500
vt 0.437500 0.000000
vt 0.375000 0.187500
vt 0.312500 0.250000
vt 0.375000 0.250000
vt 0.437500 0.250000
vt 0.500000 0.187500
s 1
usemtl Material_0.002
f 31/41/19 26/42/19 28/43/19
f 28/43/20 25/44/20 27/45/20
f 27/46/21 30/47/21 32/48/21
f 32/48/22 29/49/22 31/41/22
f 25/50/23 29/49/23 30/51/23
f 28/49/24 32/52/24 31/47/24
f 31/41/19 29/49/19 26/42/19
f 28/43/20 26/42/20 25/44/20
f 27/46/21 25/53/21 30/47/21
f 32/48/22 30/47/22 29/49/22
f 25/50/23 26/42/23 29/49/23
f 28/49/24 27/51/24 32/52/24
o rightArm.001
v 0.500000 1.500000 0.125001
v 0.500000 1.500000 -0.124999
v 0.500000 0.750000 0.125000
v 0.500000 0.750000 -0.125000
v 0.250000 1.500000 -0.124999
v 0.250000 1.500000 0.125001
v 0.250000 0.750000 -0.125000
v 0.250000 0.750000 0.125000
vn -0.0000 -0.0000 -1.0000
vn 1.0000 -0.0000 -0.0000
vn -0.0000 -0.0000 1.0000
vn -1.0000 -0.0000 -0.0000
vn -0.0000 1.0000 -0.0000
vn -0.0000 -1.0000 -0.0000
vt 0.750000 0.500000
vt 0.687500 0.687500
vt 0.687500 0.500000
vt 0.625000 0.687500
vt 0.625000 0.500000
vt 0.875000 0.500000
vt 0.812500 0.687500
vt 0.812500 0.500000
vt 0.750000 0.687500
vt 0.687500 0.750000
vt 0.750000 0.750000
vt 0.812500 0.750000
vt 0.875000 0.687500
s 1
usemtl Material_0.002
f 39/54/25 34/55/25 36/56/25
f 36/56/26 33/57/26 35/58/26
f 35/59/27 38/60/27 40/61/27
f 40/61/28 37/62/28 39/54/28
f 33/63/29 37/62/29 38/64/29
f 36/62/30 40/65/30 39/60/30
f 39/54/25 37/62/25 34/55/25
f 36/56/26 34/55/26 33/57/26
f 35/59/27 33/66/27 38/60/27
f 40/61/28 38/60/28 37/62/28
f 33/63/29 34/55/29 37/62/29
f 36/62/30 35/64/30 40/65/30
o rightLeg.001
v 0.243750 0.750000 0.125000
v 0.243750 0.750000 -0.125000
v 0.243750 0.000000 0.125000
v 0.243750 -0.000000 -0.125000
v -0.006250 0.750000 -0.125000
v -0.006250 0.750000 0.125000
v -0.006250 -0.000000 -0.125000
v -0.006250 0.000000 0.125000
vn -0.0000 -0.0000 -1.0000
vn 1.0000 -0.0000 -0.0000
vn -0.0000 -0.0000 1.0000
vn -1.0000 -0.0000 -0.0000
vn -0.0000 1.0000 -0.0000
vn -0.0000 -1.0000 -0.0000
vt 0.125000 0.500000
vt 0.062500 0.687500
vt 0.062500 0.500000
vt 0.000000 0.687500
vt 0.000000 0.500000
vt 0.250000 0.500000
vt 0.187500 0.687500
vt 0.187500 0.500000
vt 0.125000 0.687500
vt 0.062500 0.750000
vt 0.125000 0.750000
vt 0.187500 0.750000
vt 0.250000 0.687500
s 1
usemtl Material_0.002
f 47/67/31 42/68/31 44/69/31
f 44/69/32 41/70/32 43/71/32
f 43/72/33 46/73/33 48/74/33
f 48/74/34 45/75/34 47/67/34
f 41/76/35 45/75/35 46/77/35
f 44/75/36 48/78/36 47/73/36
f 47/67/31 45/75/31 42/68/31
f 44/69/32 42/68/32 41/70/32
f 43/72/33 41/79/33 46/73/33
f 48/74/34 46/73/34 45/75/34
f 41/76/35 42/68/35 45/75/35
f 44/75/36 43/77/36 48/78/36
